<?xml version="1.0" standalone="no"?>
<!DOCTYPE svg PUBLIC "-//W3C//DTD SVG 20010904//EN"
 "http://www.w3.org/TR/2001/REC-SVG-20010904/DTD/svg10.dtd">
<svg version="1.0" xmlns="http://www.w3.org/2000/svg"
 width="1024.000000pt" height="1024.000000pt" viewBox="0 0 1024.000000 1024.000000"
 preserveAspectRatio="xMidYMid meet">
<metadata>
Created by potrace 1.11, written by Peter Selinger 2001-2013
</metadata>
<g transform="translate(0.000000,1024.000000) scale(0.100000,-0.100000)"
fill="#000000" stroke="none">
<path d="M1709 10228 c0 -7 -1 -238 -2 -513 l-2 -499 -350 -2 c-192 -1 -366
-4 -385 -8 -19 -4 -48 -9 -65 -12 -79 -13 -201 -53 -290 -94 -320 -150 -542
-428 -600 -750 -21 -116 -21 -7381 0 -7490 20 -100 40 -160 85 -251 90 -182
258 -355 451 -461 56 -31 221 -98 257 -104 15 -3 34 -7 42 -10 85 -32 134 -33
4275 -33 2250 0 4113 4 4140 9 134 23 188 37 286 75 113 43 246 120 315 181
12 11 36 33 55 49 156 139 274 357 308 570 12 76 13 7370 1 7440 -16 93 -19
105 -41 167 -106 304 -354 541 -684 656 -68 24 -124 39 -175 47 -19 3 -48 8
-65 12 -16 3 -185 7 -375 9 -190 1 -348 2 -351 3 -3 1 -6 223 -6 494 -1 270
-2 500 -2 510 -1 16 -35 17 -569 17 l-567 0 1 -502 c0 -277 -1 -507 -3 -513
-2 -7 -765 -10 -2266 -9 -1244 1 -2267 2 -2272 3 -7 1 -10 172 -10 509 l0 507
-568 3 c-450 2 -567 0 -568 -10z m7507 -6378 c0 -1543 -1 -2810 -3 -2816 -3
-7 -1240 -10 -4096 -10 l-4092 1 -1 2810 c0 1546 0 2812 2 2815 1 3 1844 5
4096 5 l4093 0 1 -2805z"/>
<path d="M4050 5709 c-19 -4 -53 -10 -75 -13 -48 -8 -109 -23 -150 -38 -49
-17 -220 -101 -223 -110 -2 -4 -9 -8 -16 -8 -7 0 -21 -8 -32 -17 -10 -10 -37
-31 -59 -48 -103 -77 -225 -225 -296 -360 -36 -69 -86 -201 -96 -255 -2 -14
-9 -45 -14 -70 -27 -116 -14 -372 26 -525 78 -299 299 -651 634 -1010 93 -99
411 -414 512 -507 52 -47 112 -103 135 -125 49 -46 240 -222 264 -243 9 -8 54
-49 100 -90 45 -41 92 -84 104 -95 120 -108 212 -193 225 -207 20 -23 42 -23
62 0 14 15 152 143 207 190 10 10 63 57 116 106 53 49 105 96 115 105 10 9 60
54 111 101 51 47 104 96 119 109 408 372 774 753 958 997 272 360 397 693 388
1029 -4 112 -5 122 -30 235 -66 299 -277 573 -557 724 -171 93 -352 135 -558
131 -74 -2 -146 -6 -160 -9 -14 -4 -41 -9 -60 -12 -69 -11 -217 -64 -304 -109
-113 -57 -201 -121 -299 -214 l-77 -74 -63 61 c-34 34 -80 75 -102 92 -22 17
-47 37 -56 44 -35 29 -158 97 -229 127 -153 64 -280 90 -450 93 -74 2 -151 0
-170 -5z"/>
</g>
</svg>
